<svg width="17" height="23" viewBox="0 0 17 23" fill="none" xmlns="http://www.w3.org/2000/svg">
<path d="M10.9428 22.2159H11.1022C13.7053 22.2159 15.7772 20.125 15.7772 17.6159V12.5977C15.7772 11.9182 15.1928 11.3432 14.5022 11.3432C13.8116 11.3432 13.2272 11.9182 13.2272 12.5977V13.8V11.5C13.2272 10.8205 12.6428 10.2455 11.9522 10.2455C11.2616 10.2455 10.6772 10.8205 10.6772 11.5V13.1205V10.8205C10.6772 10.1409 10.0928 9.56593 9.40221 9.56593C8.71159 9.56593 8.12721 10.1409 8.12721 10.8205V12.4409V6.48184C8.12721 5.80229 7.54284 5.22729 6.85221 5.22729C6.16159 5.22729 5.57721 5.80229 5.57721 6.48184V15.9432L3.77096 14.1659C3.45221 13.8523 2.97409 13.6432 2.49596 13.6432C2.07096 13.6432 1.64596 13.8 1.32721 14.0614L1.38034 14.1137C1.00846 14.4273 0.955336 15.0546 1.38034 15.3682L7.80846 21.0137C8.65846 21.7977 9.77409 22.2159 10.9428 22.2159Z" stroke="black" stroke-miterlimit="10" stroke-linecap="round" stroke-linejoin="round"/>
<path d="M6.90625 3.13638V1.04547" stroke="black" stroke-linecap="round"/>
<path d="M9.03109 4.09214L10.5337 2.61365" stroke="black" stroke-linecap="round"/>
<path d="M10.0938 6.2727L12.2188 6.27271" stroke="black" stroke-linecap="round"/>
<path d="M1.59375 6.2727L3.71875 6.27271" stroke="black" stroke-linecap="round"/>
<path d="M4.6901 4.09214L3.1875 2.61365" stroke="black" stroke-linecap="round"/>
</svg>
