<svg width="29" height="30" viewBox="0 0 29 30" fill="none" xmlns="http://www.w3.org/2000/svg">
<path fill-rule="evenodd" clip-rule="evenodd" d="M11.7 3.5C6.89512 3.5 3 7.39512 3 12.2C3 17.0049 6.89512 20.9 11.7 20.9C16.5049 20.9 20.4 17.0049 20.4 12.2C20.4 7.39512 16.5049 3.5 11.7 3.5ZM1 12.2C1 6.29055 5.79055 1.5 11.7 1.5C17.6094 1.5 22.4 6.29055 22.4 12.2C22.4 18.1094 17.6094 22.9 11.7 22.9C5.79055 22.9 1 18.1094 1 12.2Z" fill="white"/>
<path fill-rule="evenodd" clip-rule="evenodd" d="M18.0893 18.6972C18.4775 18.3043 19.1106 18.3004 19.5035 18.6886L27.7035 26.7886C28.0964 27.1767 28.1003 27.8098 27.7122 28.2028C27.3241 28.5957 26.6909 28.5995 26.298 28.2114L18.098 20.1114C17.7051 19.7233 17.7012 19.0902 18.0893 18.6972Z" fill="white"/>
</svg>