<svg width="25" height="30" viewBox="0 0 25 30" fill="none" xmlns="http://www.w3.org/2000/svg">
<path fill-rule="evenodd" clip-rule="evenodd" d="M18.7052 5.92159C15.1926 2.69278 9.78643 2.6856 6.16677 5.94329L6.16319 5.94652L6.16318 5.94651C2.00011 9.65708 1.91272 16.2727 5.98013 20.0689L5.98414 20.0727L5.98413 20.0727L12.4081 26.1348L18.8226 20.2624L18.8235 20.2615C22.9892 16.4581 22.9892 9.84194 18.8235 6.03849C18.8124 6.02828 18.8014 6.01781 18.7907 6.00711L18.7052 5.92159ZM4.83064 4.45509C9.20606 0.518832 15.7888 0.50774 20.0761 4.4652C20.0859 4.47424 20.0955 4.48347 20.1049 4.49289L20.1892 4.5772C25.2061 9.1759 25.2007 17.1461 20.1731 21.7376M20.1721 21.7385L13.0731 28.2376C12.6866 28.5914 12.0926 28.5869 11.7115 28.2273L4.61549 21.5311C4.61485 21.5305 4.61421 21.5299 4.61357 21.5293C-0.316486 16.9258 -0.203856 8.94423 4.83064 4.45509" fill="black"/>
<path fill-rule="evenodd" clip-rule="evenodd" d="M12.4961 9.3999C10.5631 9.3999 8.99609 10.9669 8.99609 12.8999C8.99609 14.8329 10.5631 16.3999 12.4961 16.3999C14.4291 16.3999 15.9961 14.8329 15.9961 12.8999C15.9961 10.9669 14.4291 9.3999 12.4961 9.3999ZM6.99609 12.8999C6.99609 9.86234 9.45853 7.3999 12.4961 7.3999C15.5337 7.3999 17.9961 9.86234 17.9961 12.8999C17.9961 15.9375 15.5337 18.3999 12.4961 18.3999C9.45853 18.3999 6.99609 15.9375 6.99609 12.8999Z" fill="black"/>
</svg>
